<svg xmlns="http://www.w3.org/2000/svg" viewBox="0 0 512 512">
  <rect width="512" height="512" rx="128" fill="#137fec"/>
  <path d="M368 128H144c-26.5 0-48 21.5-48 48v336h272V176c0-26.5-21.5-48-48-48z" fill="#ffffff" fill-opacity="0.2"/>
  <path d="M336 128H176c-26.5 0-48 21.5-48 48v216c0 26.5 21.5 48 48 48h160c26.5 0 48-21.5 48-48V176c0-26.5-21.5-48-48-48zm-24 184H200c-4.4 0-8-3.6-8-8v-16c0-4.4 3.6-8 8-8h112c4.4 0 8 3.6 8 8v16c0 4.4-3.6 8-8 8zm0-64H200c-4.4 0-8-3.6-8-8v-16c0-4.4 3.6-8 8-8h112c4.4 0 8 3.6 8 8v16c0 4.4-3.6 8-8 8z" fill="#ffffff"/>
  <path d="M360 272l-40-40 40-40" stroke="#ffffff" stroke-width="24" stroke-linecap="round" stroke-linejoin="round" fill="none" opacity="0"/>
  <circle cx="360" cy="360" r="48" fill="#10b981"/>
  <path d="M336 360l16 16 32-32" stroke="#ffffff" stroke-width="8" stroke-linecap="round" stroke-linejoin="round" fill="none"/>
</svg>
